# xmcd CD database file generated by LOLA_Freedb v0.9beta0
# 
# Track frame offsets:
#      150
#      7825
#      17900
#      26825
#      37800
#      49925
#      60600
#      67750
#      79150
#      88825
# 
# Disc length: 1307 seconds
# 
# Revision: 3 
# Processed by: cddbd v1.5.2PL0 Copyright (c) Steve Scherf et al.
# Submitted via: LOLA_Freedb v0.9beta0
# 
DISCID=7205190a
DTITLE=Johnny Cash and Jerry Lee Lewis - Sunday Down South
DYEAR=1970
DGENRE=
TTITLE0=Johnny Cash and Jerry Lee Lewis - If The Good Lord's Willing
TTITLE1=Johnny Cash and Jerry Lee Lewis - I Was There When It Happened
TTITLE2=Johnny Cash and Jerry Lee Lewis - Remember Me
TTITLE3=Johnny Cash and Jerry Lee Lewis - Belshazah
TTITLE4=Johnny Cash and Jerry Lee Lewis - Goodnight Irene
TTITLE5=Johnny Cash and Jerry Lee Lewis - Will The Circle Be Unbroken
TTITLE6=Johnny Cash and Jerry Lee Lewis - Old Time Religion
TTITLE7=Johnny Cash and Jerry Lee Lewis - Carry Me Back To Old Virginia
TTITLE8=Johnny Cash and Jerry Lee Lewis - When The Saints Go Marching In
TTITLE9=Johnny Cash and Jerry Lee Lewis - Silver Threads
EXTD=
EXTT0=
EXTT1=
EXTT2=
EXTT3=
EXTT4=
EXTT5=
EXTT6=
EXTT7=
EXTT8=
EXTT9=
PLAYORDER=
